<?xml version="1.0" encoding="UTF-8" standalone="no"?> <!-- Generator: Gravit.io --> <svg xmlns="http://www.w3.org/2000/svg" xmlns:xlink="http://www.w3.org/1999/xlink" style="isolation:isolate" viewBox="0 0 450 450" width="450" height="450"><defs><clipPath id="_clipPath_kVmq3G0jSZLDSNOp0R7rdLYOwLUdpGbR"><rect width="450" height="450"></rect></clipPath></defs><g clip-path="url(#_clipPath_kVmq3G0jSZLDSNOp0R7rdLYOwLUdpGbR)"><g id="Group"><path d=" M 63.111 245.889 L 63.111 245.659 C 63.111 235.256 71.54 226.358 82.705 224.958 L 267.373 204.08 L 339.889 204.111 C 345.915 204.111 351.796 206.388 356.015 210.346 L 386.889 242.756 L 386.889 245.889 L 63.111 245.889 Z " fill="rgb(245,206,133)"></path><path d=" M 339.889 209.333 C 344.505 209.333 348.996 211.025 352.255 213.981 L 377.687 240.667 L 69.252 240.667 C 71.32 235.183 76.678 230.974 83.238 230.16 L 267.363 209.333 L 339.889 209.333 Z M 339.889 198.889 L 266.778 198.889 L 82.057 219.778 C 68.218 221.512 57.889 232.572 57.889 245.659 L 57.889 251.111 L 392.111 251.111 L 392.111 240.667 L 359.587 206.534 C 354.225 201.584 347.186 198.852 339.889 198.889 Z " fill="rgb(150,122,68)"></path><rect x="292.889" y="151.889" width="135.778" height="31.333" transform="matrix(1,0,0,1,0,0)" fill="rgb(245,206,133)"></rect><path d=" M 423.444 157.111 L 423.444 178 L 298.111 178 L 298.111 157.111 L 423.444 157.111 Z M 433.889 146.667 L 287.667 146.667 L 287.667 188.444 L 433.889 188.444 L 433.889 146.667 Z " fill="rgb(150,122,68)"></path><rect x="151.889" y="84" width="73.111" height="41.778" transform="matrix(1,0,0,1,0,0)" fill="rgb(150,122,68)"></rect><path d=" M 109.129 360.778 C 96.268 360.797 83.888 355.885 74.537 347.054 L 33.72 309.851 L 32.624 308.764 C 25.404 301.915 21.321 292.396 21.333 282.444 C 21.333 262.287 37.731 245.889 57.889 245.889 L 392.111 245.889 C 412.269 245.889 428.667 262.287 428.667 282.444 C 428.667 292.774 424.364 302.362 416.53 309.443 L 413.7 312.002 L 413.742 312.086 L 374.679 346.876 C 365.301 355.81 352.841 360.788 339.889 360.778 L 109.129 360.778 Z " fill="rgb(222,185,116)"></path><path d=" M 392.111 251.111 C 409.386 251.111 423.444 265.169 423.444 282.444 C 423.44 291.287 419.65 299.704 413.031 305.568 L 409.553 308.817 L 370.982 343.179 C 362.59 351.141 351.457 355.573 339.889 355.556 L 109.14 355.556 C 97.55 355.563 86.4 351.117 77.994 343.137 L 38.138 306.811 L 36.248 304.994 C 30.052 299.131 26.546 290.974 26.556 282.444 C 26.556 265.169 40.614 251.111 57.889 251.111 L 392.111 251.111 Z M 392.111 240.667 L 57.889 240.667 C 34.816 240.667 16.111 259.371 16.111 282.444 C 16.114 293.812 20.771 304.682 29 312.524 L 28.968 312.598 L 70.944 350.856 C 81.284 360.581 94.944 365.997 109.14 366 L 339.889 366 C 354.122 366 367.815 360.551 378.157 350.772 L 420.081 313.423 L 420.04 313.308 C 428.832 305.456 433.868 294.233 433.889 282.444 C 433.889 259.371 415.184 240.667 392.111 240.667 Z " fill="rgb(150,122,68)"></path><path d=" M 381.667 282.444 C 381.667 276.68 386.347 272 392.111 272 C 397.876 272 402.556 276.68 402.556 282.444 C 402.556 288.209 397.876 292.889 392.111 292.889 C 386.347 292.889 381.667 288.209 381.667 282.444 Z " fill="rgb(150,122,68)"></path><path d=" M 47.444 282.444 C 47.444 276.68 52.124 272 57.889 272 C 63.653 272 68.333 276.68 68.333 282.444 C 68.333 288.209 63.653 292.889 57.889 292.889 C 52.124 292.889 47.444 288.209 47.444 282.444 Z " fill="rgb(150,122,68)"></path><path d=" M 115.333 308.556 C 115.333 297.027 124.693 287.667 136.222 287.667 C 147.751 287.667 157.111 297.027 157.111 308.556 C 157.111 320.084 147.751 329.444 136.222 329.444 C 124.693 329.444 115.333 320.084 115.333 308.556 Z " fill="rgb(245,206,133)"></path><path d=" M 136.222 292.889 C 144.86 292.889 151.889 299.918 151.889 308.556 C 151.889 317.193 144.86 324.222 136.222 324.222 C 127.585 324.222 120.556 317.193 120.556 308.556 C 120.556 299.918 127.585 292.889 136.222 292.889 Z M 136.222 282.444 C 121.801 282.444 110.111 294.135 110.111 308.556 C 110.111 322.976 121.801 334.667 136.222 334.667 C 150.643 334.667 162.333 322.976 162.333 308.556 C 162.333 294.135 150.643 282.444 136.222 282.444 Z " fill="rgb(150,122,68)"></path><path d=" M 198.889 308.556 C 198.889 297.027 208.249 287.667 219.778 287.667 C 231.307 287.667 240.667 297.027 240.667 308.556 C 240.667 320.084 231.307 329.444 219.778 329.444 C 208.249 329.444 198.889 320.084 198.889 308.556 Z " fill="rgb(245,206,133)"></path><path d=" M 219.778 292.889 C 228.415 292.889 235.444 299.918 235.444 308.556 C 235.444 317.193 228.415 324.222 219.778 324.222 C 211.14 324.222 204.111 317.193 204.111 308.556 C 204.111 299.918 211.14 292.889 219.778 292.889 Z M 219.778 282.444 C 205.357 282.444 193.667 294.135 193.667 308.556 C 193.667 322.976 205.357 334.667 219.778 334.667 C 234.199 334.667 245.889 322.976 245.889 308.556 C 245.889 294.135 234.199 282.444 219.778 282.444 Z " fill="rgb(150,122,68)"></path><path d=" M 282.444 308.556 C 282.444 297.027 291.804 287.667 303.333 287.667 C 314.862 287.667 324.222 297.027 324.222 308.556 C 324.222 320.084 314.862 329.444 303.333 329.444 C 291.804 329.444 282.444 320.084 282.444 308.556 Z " fill="rgb(245,206,133)"></path><path d=" M 303.333 292.889 C 311.971 292.889 319 299.918 319 308.556 C 319 317.193 311.971 324.222 303.333 324.222 C 294.696 324.222 287.667 317.193 287.667 308.556 C 287.667 299.918 294.696 292.889 303.333 292.889 Z M 303.333 282.444 C 288.913 282.444 277.222 294.135 277.222 308.556 C 277.222 322.976 288.913 334.667 303.333 334.667 C 317.754 334.667 329.444 322.976 329.444 308.556 C 329.444 294.135 317.754 282.444 303.333 282.444 Z " fill="rgb(150,122,68)"></path><path d=" M 173.958 204.111 L 115.438 176.277 C 109.098 172.454 104.889 165.018 104.889 157.111 L 104.889 146.667 C 104.889 139.084 108.649 132.044 114.968 127.835 L 126.53 121.088 C 137.175 113.938 149.708 110.117 162.532 110.111 L 245.889 110.111 C 259.728 110.111 273.462 114.686 284.533 122.989 L 313.778 149.006 L 313.778 186.272 L 295.949 204.111 L 173.958 204.111 Z " fill="rgb(245,206,133)"></path><path d=" M 245.889 115.333 C 258.474 115.333 270.945 119.448 281.066 126.916 L 308.556 151.356 L 308.556 184.12 L 293.787 198.889 L 175.138 198.889 L 118.185 171.806 C 113.17 168.599 110.129 163.064 110.111 157.111 L 110.111 146.667 C 110.111 140.922 112.921 135.585 117.631 132.337 L 129.162 125.6 L 129.433 125.444 L 129.694 125.266 C 139.416 118.779 150.844 115.322 162.532 115.333 L 245.889 115.333 Z M 245.889 104.889 L 162.521 104.889 C 148.776 104.889 135.334 108.962 123.898 116.587 L 112.064 123.501 C 104.319 128.665 99.667 137.358 99.667 146.667 L 99.667 157.111 C 99.667 166.898 104.795 175.963 113.192 180.998 L 172.778 209.333 L 298.111 209.333 L 319 188.444 L 319 146.667 L 287.667 118.811 C 275.613 109.774 260.954 104.889 245.889 104.889 Z " fill="rgb(150,122,68)"></path><path d=" M 214.556 162.333 C 214.556 153.687 221.576 146.667 230.222 146.667 C 238.869 146.667 245.889 153.687 245.889 162.333 C 245.889 170.98 238.869 178 230.222 178 C 221.576 178 214.556 170.98 214.556 162.333 Z " fill="rgb(255,255,255)"></path></g></g></svg> 